<?xml version="1.0"?><svg version="1.2" baseProfile="tiny-ps" viewBox="0 0 300 300" xmlns="http://www.w3.org/2000/svg" xmlns:xlink="http://www.w3.org/1999/xlink"><title>Real Merchant Services</title><g><g fill="#fdfdfd" transform="matrix(.1 0 0 -.1 0 300)"><path d="M0 1500V0h3000v3000H0V1500z"/></g><g fill="#bebebe" transform="matrix(.1 0 0 -.1 0 300)"><path d="M0 2511v-490l283-3 282-3 53-29 53-29 22-36 22-36-1-56-1-56-22-37-22-36-30-17c-34-20-36-29-9-38 11-3 30-20 42-38l22-31 6-118 5-118H430l-10 26-10 25v168l-22 15-22 16h-87l7 38 7 37 33 46c41 56 64 109 64 145v27l-54-52c-60-56-71-61-79-32l-5 20-38 3-39 3-18 39-18 39 10 10 11 11v66h-10c-5 0-10-5-10-12v-12l-11 11-12 12-20-25-20-25-38 37-39 38v-393l19-11c11-5 37-10 58-10s62-7 92-15l54-14 19 10 19 10-3-123-3-123-127-3-128-3V0h3000v1340l-222 2-223 3-3 338-2 337h290l2-247 3-248 78-3 77-3v1481H0v-489zm1500-581v-90h-370v-60h350v-180h-350v-80h393l-7-40c-3-22-11-63-17-90l-11-50H840v680h660v-90zm758-17c22-60 79-210 126-335 47-124 86-229 86-232s-69-6-153-6h-153l-15 48-15 47-110 3-111 3-11-13c-5-7-14-29-19-48l-9-35-142-3c-78-1-142 0-142 3s52 157 117 341l116 334h395l40-107zm-271-154c-14-46-29-96-32-111l-7-28h66c36 0 66 2 66 6 0 12-52 190-60 203l-8 14-25-84z"/></g><g fill="#9cbe47" transform="matrix(.1 0 0 -.1 0 300)"><path d="M0 2515v-485h496l59-15 60-16 35-28c19-15 43-43 52-62l18-34v-89l-21-43c-11-24-24-43-27-43-4-1-17-9-30-20l-23-19 35-31 35-32 5-31c3-18 7-76 9-129l3-98H422l-6 16c-3 9-6 55-6 103v88l-18 16-19 17H260v-240H0V0h3000v1340h-450v691l148-3 147-3 3-247 2-248h150v1470H0v-485zm1510-585v-90l-187-2-188-3v-50l173-3 172-2v-190h-350v-70h401l-5-17c-2-10-10-51-17-90l-12-73H840v680h670v-90zm842-250c70-184 128-336 128-338 0-1-73-1-162 0l-161 3-15 43-14 42h-225l-13-45-13-45h-296l64 183c133 383 158 453 166 475l9 22 202-2 202-3 128-335zm-365 60c-15-49-27-96-27-104v-16h110v18c0 17-47 182-53 188-2 2-16-36-30-86zM0 1818v-186l13-10c6-5 35-13 62-17 28-3 71-11 98-17l47-10 23 6 24 6 11 25c7 14 12 32 12 40s16 37 35 64c32 44 65 118 65 144v11l-42-41c-39-37-77-63-92-63-3 0-6 9-6 20v20h-24c-13 0-32 3-41 6l-16 6-18 38-18 37 14 18c13 19 18 65 7 65-4 0-13-8-20-17l-13-18-1 20v19l-17-24c-9-14-18-27-20-29-2-3-21 13-43 34l-40 39v-186z"/></g><g fill="#757e62" transform="matrix(.1 0 0 -.1 0 300)"><path d="M0 2515v-485h496l59-15 60-16 35-28c19-15 43-43 52-62l18-34v-89l-21-43c-11-24-24-43-27-43-4-1-17-9-30-20l-23-19 35-31 35-32 5-31c3-18 7-76 9-129l3-98H422l-6 16c-3 9-6 55-6 103v88l-18 16-19 17H260v-240H0v-88l14-5 14-6 13-56c7-31 16-58 20-61l8-5 19 63 20 63h57l3-80 2-80-9-14-9-14-11 7-11 7-1 77-1 77-26-80-27-80H47l-19 70c-11 38-21 71-24 74-2 2-4-269-4-602V0h3000v1068l-38-5-37-5-25 20-25 20 8 8 7 7 24-12 23-13 24 4 24 3v38l-39 13c-21 8-45 19-53 26l-14 11 3 26 3 26 29 14 30 14 28-11 28-10v98h-450v691l148-3 147-3 3-247 2-248h150v1470H0v-485zm1510-585v-90l-187-2-188-3v-50l173-3 172-2v-190h-350v-70h401l-5-17c-2-10-10-51-17-90l-12-73H840v680h670v-90zm842-250c70-184 128-336 128-338 0-1-73-1-162 0l-161 3-15 43-14 42h-225l-13-45-13-45h-296l64 183c133 383 158 453 166 475l9 22 202-2 202-3 128-335zM733 1228l19-22-12-4c-6-2-19 3-29 12s-27 16-39 16h-21l-15-16-16-15v-35c0-20 5-44 10-55l11-19h52l19 17 18 17 11-11 10-10-27-22-27-21h-59l-29 29-29 29v63l16 30 15 30 22 9 22 9 30-4 30-5 18-22zm1044 7 28-24-22-1c-12 0-25 5-28 10-3 6-17 10-30 10h-23l-5-15-6-14 12-8c7-4 30-15 52-23l40-15 3-32 3-31-23-16c-12-9-32-16-45-16-29 0-71 19-77 36l-5 14h17c10 0 23-5 29-11l11-11 28 4 29 3v40l-39 13c-22 7-46 18-53 24l-14 11 3 26 3 26 25 12c37 19 56 16 87-12zm865-2c10-9 18-20 18-25 0-13-27-9-40 7l-12 15h-47l-15-16-16-15v-35c0-20 5-44 10-55l11-19h57l12 15c14 17 40 20 40 6 0-5-12-19-26-30l-27-21h-54l-26 20-25 20-7 30-7 30 12 35 12 35 26 15 27 15 29-5c16-3 38-13 48-22zm-2292 7v-10h-88l-6-16c-3-9-4-20 0-25l5-9h89v-30h-89l-6-20c-3-11-3-24 0-30l6-10h101l-4-12-5-13H225l-3 93-3 92h131v-10zm178-2 12-12v-55l-11-7-11-6 11-11 11-11v-76h-30v24c0 13-3 31-6 40l-6 16h-68v-80h-30v190h116l12-12zm302-24v-35l43 3 42 3 3 33 3 32h29v-190h-29l-3 43-3 42-42 3-42 3-3-43-3-43h-30l-3 93-3 92h41v-36zm302-44c15-41 27-83 27-93l1-19-12 4c-7 3-17 14-23 26l-10 22h-75l-12-25-11-25h-29l4 13c3 6 17 49 33 95l27 83 27-3 26-3 27-75zm158 15c19-36 38-65 43-65h7v130h30v-181l-15-5-15-6-16 13c-9 7-29 39-45 71l-29 58h-23l6-58 6-57-8-14-9-14-11 7-11 7v179h55l35-65zm270 56v-10l-27-3-28-3-3-83-3-83-17 3-17 3-3 83-3 82h-24c-13 0-27 5-30 10l-6 10h161v-9zm420-1v-10h-100v-50h90v-30h-90v-60h102l-4-12-5-13h-128l-3 93-3 92h141v-10zm175-6 17-17-8-21c-3-12-6-47-5-80l2-58-13 4-13 5-5 34-5 34-32 3-32 3-3-38-3-38h-30l-3 93-3 92h120l16-16zm105-60 22-76 8 9c4 4 17 38 30 76l22 67h14c8 0 14-4 14-9 0-20-53-157-65-170l-13-14-15 6-14 5-27 77c-15 42-30 83-33 91l-5 14h39l23-76zm188-16-3-93h-30l-3 93-3 92h42l-3-92zm392 82v-10h-100v-50h90v-30h-90v-60h102l-4-12-5-13-58-3-58-3-9 13-8 13 2 75c0 41 3 78 5 83l4 7h129v-10zm-853 500c-15-49-27-96-27-104v-16h110v18c0 17-47 182-53 188-2 2-16-36-30-86zM437 1223c-4-3-7-17-7-30v-23h71l5 15 6 15-12 15-12 15h-23c-12 0-25-3-28-7zm630-10c-2-4-8-23-12-40l-7-33h55l-7 32c-3 18-10 36-15 41l-9 9-5-9zm993-13v-31l33 3 32 3v50l-32 3-33 3v-31zM0 1818v-186l13-10c6-5 35-13 62-17 28-3 71-11 98-17l47-10 23 6 24 6 11 25c7 14 12 32 12 40s16 37 35 64c32 44 65 118 65 144v11l-42-41c-39-37-77-63-92-63-3 0-6 9-6 20v20h-24c-13 0-32 3-41 6l-16 6-18 38-18 37 14 18c13 19 18 65 7 65-4 0-13-8-20-17l-13-18-1 20v19l-17-24c-9-14-18-27-20-29-2-3-21 13-43 34l-40 39v-186zm2917-603-6-14 12-8c7-4 27-13 45-19l32-12v41l-17 13c-10 7-28 14-39 14h-22l-5-15z"/></g><g fill="#3c4829" transform="matrix(.1 0 0 -.1 0 300)"><path d="M0 2516v-485l283-3 282-3 52-27 52-28 26-37 25-38v-126l-15-29c-8-15-29-40-47-54l-32-25 26-20 26-21 15-39 16-38 2-104 2-104-139-2-139-3-14 9-14 9-5 106-5 107-19 10-19 10-47-3-47-3-3-122-3-123H0v-68l13-5 13-5 19-69 19-68 22 70 22 70 31 3 31 3v-201h-40l-1 78-1 77-25-78-24-77H42l-17 70c-9 39-19 70-21 70S0 930 0 600V0h3000v1066l-40-4-40-4-25 16-25 16v30h41l5-15 6-15h56l5 15 6 14-12 8c-7 4-30 15-52 23l-40 15-3 31-3 31 17 18 18 17 43-5 43-5v78l-227 2-228 3v690l153 3 152 3v-501h150v1470H0v-484zm1508-582 3-91-47-7c-26-3-109-6-185-6h-139v-40l173-2 172-3 3-97 3-98h-361v-60h400l-1-22c0-13-8-57-17-98l-17-75-327-3-328-2v700l333-2 332-3 3-91zm844-244c70-184 128-341 128-348v-12l-161 2-161 3-17 45-17 45h-218l-14-47-13-48h-299v9c0 8 202 592 230 667l10 24 202-2 202-3 128-335zM358 1243l-3-18-48-3-47-3v-39h90v-30h-90v-60h100v-30H220v200h141l-3-17zm173-4 21-21-7-21c-4-12-7-48-6-80l2-59-18 4-18 3-5 35-5 35-27 3-27 3-3-38-3-38-17-3-18-3v201h110l21-21zm199 1c11-11 20-24 20-30v-10h-19c-10 0-24 7-31 15s-21 15-31 15h-18l-15-22-16-22v-52l16-22 15-22h19c10 0 25 7 34 15 17 17 46 20 46 5 0-5-9-19-20-30l-20-20h-81l-24 25-25 24v93l29 29 29 29h72l20-20zm100-20v-40h79l3 37 3 38 18 3 17 3v-201h-40v91l-37-3-38-3-3-42-3-43h-39v200h40v-40zm307-55c38-109 38-105 13-105h-20l-10 25-10 25h-70l-6-25-6-25h-19c-24 0-25-2 12 108l31 93 27-3 26-3 32-90zm153 26 35-64 5 64 5 64 18 3 17 3v-201h-48l-41 73-41 72v-145h-40v201l27-3 28-3 35-64zm270 49v-20h-60v-160h-40v159l-27 3-28 3-3 18-3 17h161v-20zm221 1 24-20-12-12-13-13-19 18-20 18-18-4-18-3-3-17-3-17 37-10c20-5 45-18 55-27l19-17v-37l-20-20-20-20h-76l-22 16c-12 8-22 22-22 30v14h41l5-15 6-15h56l5 14 6 15-12 9c-7 5-29 15-50 21l-37 13-10 18-10 19 9 24c11 29 23 35 67 36l32 1 23-19zm197 2-3-18-48-3-47-3v-39h100v-29l-47-3-48-3v-50l52-3 52-3-6-15-5-14h-138v200h141l-3-17zm170 1 22-15v-23c0-12-5-27-11-33l-11-11 11-20c6-11 11-34 11-51v-31h-40v56l-12 12c-7 7-22 12-35 12h-23v-80h-40v200h106l22-16zm112-59 24-75 7 7c3 5 16 38 29 76l22 67h19c25 0 25 1-15-105l-34-90-24-3-25-3-31 86c-18 48-32 93-32 101v14h36l24-75zm190-25v-100h-40v200h40v-100zm188 84c12-8 22-22 22-30v-14h-19c-10 0-24 7-31 15s-21 15-31 15h-18l-15-22-16-22v-52l16-22 15-22h50l5 15 6 15h38v-14c0-8-10-22-22-30l-22-16h-36l-35 1-16 12c-25 19-39 52-39 92v37l29 29 29 29h68l22-16zm200-1-3-18-48-3-47-3v-39h100v-29l-47-3-48-3v-50l48-3 47-3v-29h-140v200h141l-3-17zm-847 500c-12-43-24-86-27-95l-5-18h112l-5 18c-3 9-14 50-25 91s-22 76-24 78-14-32-26-74zM447 1223c-4-3-7-17-7-30v-23h48l12 15 13 16-9 8c-5 5-18 12-30 15l-20 6-7-7zm620-25c-4-14-10-33-13-42l-6-16h52v13c-1 6-7 26-14 42l-13 30-6-27zm1000 25c-4-3-7-17-7-30v-23h19c49 0 68 30 32 50-23 12-35 13-44 3zM0 1812v-181l19-11c11-5 35-10 55-10 19 0 61-7 95-15l60-16 21 13c20 13 27 26 35 68 2 11 16 35 31 53 32 38 64 104 64 132v20l-18-22c-22-29-82-73-99-73h-13v40h-67l-15 18c-8 9-19 29-26 44l-11 27 14 27c8 15 12 32 8 36l-5 9-21-18-20-18 6 18 7 18-10-6c-6-3-10-13-10-21v-14H66l-33 32-33 32v-182zm2927-589c-4-3-7-12-7-19v-13l20-5c11-3 29-9 40-12l20-5v14c0 29-54 59-73 40z"/></g><g fill="#030406" transform="matrix(.1 0 0 -.1 0 300)"><path d="M0 2520v-480h466l59-11c75-14 124-39 163-83l31-35 6-45 7-44-7-34c-9-42-43-94-73-110l-24-12 25-21c13-11 31-33 40-50l15-30 3-117 4-118H420l-10 26-10 25v165l-12 12-12 12H271l-3-117-3-118-132-3-133-3v-69h29l18-62 19-62 18 62 19 62h66l3-96 3-96-11-9-11-9-17 6-16 6-1 52-1 51-17-54-16-54-13-5c-20-6-39 16-48 56l-7 37-8-45-8-45V528L0 0h3000v1055h-102l-19 24c-10 13-19 27-19 32v9h60v-9c0-11 30-19 48-14 24 9 11 24-35 44-52 22-63 33-63 65v21l21 19 21 19 44-2 44-1v68h-460v700h310l2-247 3-248 73-3 72-3v1471H0v-480zm1510-590v-100h-370v-40h350v-200h-350v-60h193c107 0 196-2 199-5 3-4 2-23-2-43-5-20-13-63-20-94l-11-58H830v700h680v-100zm720 97c0-2 59-158 130-346 72-189 130-345 130-347s-76-4-170-4h-170l-11 45-12 46-110-3-110-3-11-40-12-40-158-3-158-3 4 9c1 5 57 163 123 351l119 341h208c114 0 208-1 208-3zM709 1259l31-11 11-19 10-19-6-10c-3-6-15-10-26-10h-20l-5 15-6 15h-22c-12 0-27-5-34-12l-12-12v-72l12-12c7-7 22-12 35-12h23v9c0 5 9 13 21 16l21 7 9-9 10-10-7-17c-8-20-55-46-84-46-12 0-34 7-50 15l-28 15-12 34-11 35 6 35 7 34 21 20c19 17 35 25 68 31 3 0 20-4 38-10zm1050 0 31-11 11-19 10-19-17-7-17-6-18 11c-10 7-28 12-40 12h-21l4-12c2-6 21-17 43-25 21-7 44-18 51-24l14-11v-57l-15-15c-8-8-24-18-36-21l-21-7-34 6-33 7-16 22c-21 31-19 37 15 37h30v-9c0-13 27-21 45-15 27 11 16 25-35 46l-50 21-7 25-6 25 10 16c9 15 50 41 64 41 3 0 20-5 38-11zm860 0 31-11 10-18c6-10 10-23 10-29v-11h-51l-5 15-6 15h-22c-12 0-27-5-34-12l-12-12v-72l12-12c17-17 48-15 69 4l18 16 16-5c20-8 19-20-3-47l-17-21-41-6-41-5-33 29-33 30-1 46-1 46 21 28 21 28 24 6c35 10 33 10 68-2zm-2259-18v-20l-47-3-46-3-4-12-4-12 48-3 48-3 3-22 3-23H260v-40h99l6-10 7-11-12-14-11-14-67 2-67 2-3 103-3 102h151v-19zm174 3 16-15v-58l-10-6-11-7 11-13 11-14-3-38-3-38h-40l-5 35-5 35-27 3-27 3-3-38-3-38h-40l-3 103-3 102h130l15-16zm304-21 3-33h69v70h51l-3-102-3-103h-40l-3 43-3 42h-68l-3-42-3-43-19-3-19-4-6 10c-3 5-5 53-3 107l3 96 22-3 22-3 3-32zm305-60 35-98-8-8-8-9-20 6-20 7-5 19-5 20h-69l-11-25-12-25h-14c-27 0-26 16 7 113l31 97h64l35-97zm149 35 33-62 3 62 3 62h39v-210h-17c-28 0-38 11-74 75l-34 60-5-65-5-65-17-3-18-3v211h59l33-62zm278 42v-20h-59l-3-82-3-83h-40l-5 80-5 80-27 3-28 3v39h170v-20zm415 0v-15l-47-3-48-3v-28l43-3 42-3 3-22 3-23h-91v-40h101l-3-22-3-23h-140l-3 103-3 103 73-3 73-3v-15zm169 7 18-13-1-25c-1-13-1-55-1-92l1-69-23 4-23 3-3 38-3 37h-58l-3-37-3-38h-40l-3 103-3 102h127l18-13zm112-61 22-70 23 72 23 72h56l-36-97c-19-54-39-102-44-107l-9-9-23 6-23 6-33 93c-17 51-32 97-32 101v8l27-3 27-3 22-69zm192-28 3-96-21-7-20-6-10 6-10 6v200l28-3 27-3 3-97zm390 85-3-18-48-3-47-3v-28l43-3 42-3 3-22 3-23h-91v-40h101l-3-22-3-23h-140l-3 103-3 102h152l-3-17zm-856 490c-12-44-22-85-22-92v-11h92l-6 33c-3 17-14 59-24 91l-18 60-22-81zM440 1201v-21h61l-3 18-3 17-28 3-27 3v-20zm626-16c-10-26-7-35 9-35h15v13c0 6-4 18-9 25l-8 14-7-17zm1001 29c-4-4-7-13-7-21v-13h61l-3 18-3 17-21 3c-11 2-23 0-27-4zM0 1818v-176l15-12 15-12 67-8c38-4 76-11 86-15l17-7 35 6 34 7 7 36 7 37 33 47c19 25 41 65 49 89l15 43-45-42c-24-22-51-41-60-41h-22c-5 0-8 8-8 18v17l-39 5-40 5-22 44-23 43 14 15c8 8 15 21 15 28v14l-36-21-35-21-40 39-39 38v-176zm2925-608-6-10 28-10c15-6 34-13 41-15l12-4v11c0 27-62 50-75 28z"/></g></g></svg>