<?xml version="1.0"?><svg version="1.2" baseProfile="tiny-ps" viewBox="0 0 96 96" xmlns="http://www.w3.org/2000/svg" xmlns:xlink="http://www.w3.org/1999/xlink"><title>Real Merchant Services</title><g><g fill="#fefefe" transform="matrix(.1 0 0 -.1 0 96)"><path d="M0 480V0h960v960H0V480z"/></g><g fill="#dadada" transform="matrix(.1 0 0 -.1 0 96)"><path d="M0 480V0h960v960H0V480zm305 94 16-17-7-16c-4-9-6-33-5-53l1-38h-50v39l-17 10-18 10 13 12c6 7 12 18 12 24v12l-21-1-22-1-2 18-3 17h87l16-16zm185 1v-15h-80v-19l35-7 35-6v-28h-70v-20h80v-30H350v140h140v-15zm170-35c10-25 21-55 24-67l7-23h-61v20h-60v-20h-25c-30 0-30 0-4 79l21 62 40-3 40-3 18-45zm120-5v-55h40v-30H720v140h60v-55zm-576-41 16-6v-38h-60v50h14c8 0 21-3 30-6zm386 47c0-5-3-16-6-25l-6-16h44l-6 16c-3 9-6 20-6 25s-4 9-10 9c-5 0-10-4-10-9z"/></g><g fill="#b4b4b4" transform="matrix(.1 0 0 -.1 0 96)"><path d="M0 480V0h960v960H0V480zm301 100 19-11v-19c0-10-5-22-10-25l-10-6 10-19c5-10 10-26 10-34v-16h-60v39l-17 10-18 10 13 12c6 7 12 20 12 28v15l-11-11-11-11-14 5c-8 3-14 11-14 18v14l-17 4c-10 3 8 5 40 6l58 1 20-10zm187-7-3-18-40-6-40-6 38-2 37-1v-40h-70v-20h80v-30H350v140h141l-3-17zm180-45c12-35 22-66 22-70 0-12-48-9-70 4l-19 12-24-13-24-13-20 4-21 3 25 68 25 67h83l23-62zm112 7v-55h40v-30H720v140h60v-55zm-560-66v-19h-60v59l30-10 30-11v-19zm377 74c-4-3-7-15-7-25v-18h20v25c0 26-2 29-13 18z"/></g><g fill="#718445" transform="matrix(.1 0 0 -.1 0 96)"><path d="M0 480V0h960v960H0V480zm314 88 11-18-12-20-13-19 10-6 10-6v-60l-32 3-33 3-4 25c-1 14-8 28-13 31l-10 6 12 23 12 22-10-6c-6-3-17-3-26 0l-16 6v29l-9-6-10-5-6 10-7 11 68-3 67-3 11-17zm176 2v-20l-42-2-43-1 43-4 42-4v-39h-80v-20h80v-40H350v150h140v-20zm180-42c13-35 25-69 27-75l5-13h-72v20h-60v-20h-60v10c0 5 8 31 18 57 11 26 22 56 25 66l6 17h88l23-62zm110 7v-55h40v-40H720v150h60v-55zm-560-66v-29h-60v67l30-5 30-4v-29zm376 62c-4-7-5-15-2-18 9-9 19 4 14 18l-4 13-8-13z"/></g><g fill="#3c432f" transform="matrix(.1 0 0 -.1 0 96)"><path d="M0 480V0h960v960H0V480zm306 102 12-7v-68l1-68-32 3-32 3-3 23-3 22h-29v-50h-60v67l27-5 26-5 13 18 14 18-23 12-22 12 3 12 2 12-9-5-10-6-6 10-6 10h63c35 0 68-4 74-8zm184-12v-20l-42-2-43-1 43-4 42-4v-39l-42-2-43-1 45-6 45-6-2-7c-2-5-3-15-3-23v-15H350v150h140v-20zm184-51c14-38 26-72 26-75 0-2-16-4-35-4h-35v20h-24c-14 0-28-4-31-10l-6-10h-30c-16 0-29 3-29 7s10 37 22 75l22 68h94l26-71zm106 21v-50h40v-51l-52 3-53 3-3 73-3 72h71v-50zM190 420l10 15v-45h-40v45l10-15 10-15 10 15zm41 3-13-5 13-9 14-9h-30l15-10 15-10h-12c-6 0-15 5-18 10-9 15 2 40 17 39l13-1-14-5zm49-14v-20l-9 5-9 6-5-12-5-13-1 28-1 27h30v-21zm45 11 6-10-15 6-16 6v-34l18 7 17 6-12-12-13-13-11 11-12 12 6 15c7 18 23 21 32 6zm104-3c6 10 10 14 11 8 0-19-19-39-39-40l-21-2v9c0 4 4 8 10 8h9l-5 18-6 17 15-18 15-18 11 18zm63-12c-2-14-6-25-7-25s-5 11-7 25l-5 25h24l-5-25zm50 16-14-8 15-6 15-6 6 15c3 8 11 14 18 14h13l-15-10-15-10h30l-14-9-13-9 13-4 14-5h-66l11 7 12 7-17 7-16 6 6 10c3 5 12 10 18 10h12l-13-9zm88-12v-20l-9 5-9 6-5-12-5-13-1 28-1 27h30v-21zm40 11 10 15v-10c0-5-5-17-10-25l-10-15-10 15c-5 8-10 20-10 25v10l10-15 10-15 10 15zm66-2 7-13-8 7-8 8-14-12-13-11 6 17c7 19 20 21 30 4zm35 5-13-5 13-9 14-9h-30l15-10 15-10h-35v50l18-1 17-1-14-5zm34-2-5-10 10-6 10-6-5-10c-4-5-12-9-18-9h-12l15 10 15 10h-25v15c0 8 5 15 11 15h10l-6-9zm-435-16v-12h-30v24h30v-12zm90-7v-22l-11 11-11 11 6 11c11 17 16 13 16-11zm275-8c-3-5-12-10-18-10h-12l15 10c19 12 23 12 15 0zM590 520c0-5 5-10 10-10 6 0 10 5 10 10 0 6-4 10-10 10-5 0-10-4-10-10z"/></g><g fill="#030309" transform="matrix(.1 0 0 -.1 0 96)"><path d="M0 480V0h960v960H0V480zm316 95 14-19-6-16c-4-8-6-34-5-57l2-43h-71v50h-20v-50h-70v81l19-11c28-14 34-13 49 11l13 21-9-6-9-5-32 28c-17 15-31 31-31 36v7l71-4 71-4 14-19zm182-2 3-23-43-2-43-1 38-4 37-4v-38l-37-4-38-4 43-1 43-2-3-22-3-23-77-3-78-3v74c0 40 3 77 7 81l7 7 71-3 70-3 3-22zm149 15c11-15 53-125 53-139v-9h-69l-6 10c-3 6-15 10-26 10h-19v-20h-79l24 70c13 38 27 74 30 80l6 10h77l9-12zm135-45-4-51 24-4 23-3 3-22 3-23H710v73c0 41 3 77 7 81s21 6 38 4l30-3-3-52zM350 417v-12l9 14 9 13 7-12 8-12 8 13 9 14 10-15 10-15v22l44 1 44 2-11-25-12-25-4 23-3 22-8-20-7-20-49-1-49-2-7 12-8 11v-26l-37 3-38 2-7 10-8 11v-24l-50 1h-50v43l95 2 95 2v-12zm390 1v-9l-10 6-10 6v-32l10 6 10 6v-20l-30 1-30 1v22l-11-15-11-15-5 14-5 13-9-13-9-14-10 15-10 15v-24l-45 1-45 1v17c0 9 2 19 5 22s53 5 110 5h105v-9zm80-15v-24l-17 3-18 4 2 12 3 11-16-6-16-6 14-8 13-9h-35v48h70v-25zm-515-3 6-10 10 5c14 9 11 15-7 15h-15l6-10zm281 5-5-15h9c6 0 10 7 10 15s-2 15-4 15-6-7-10-15z"/></g></g></svg>